<svg width="16.000000" height="16.000000" viewBox="0 0 16 16" fill="none" xmlns="http://www.w3.org/2000/svg" xmlns:xlink="http://www.w3.org/1999/xlink">
    <desc>
        Created with Pixso.
    </desc>
    <defs/>
    <rect id="BG" rx="8.000000" width="16.000000" height="16.000000" fill="#1E5EFF" fill-opacity="1.000000"/>
    <rect id="BG" rx="8.000000" width="16.000000" height="16.000000" stroke="#979797" stroke-opacity="0" stroke-width="0.000000"/>
    <path id="Value" d="M11.28 9.09C11.29 10.85 9.97 12.12 8.02 12.12C6.22 12.12 4.9 11.04 4.87 9.53L6.66 9.53C6.7 10.21 7.29 10.66 8.02 10.66C8.89 10.66 9.51 10.04 9.51 9.13C9.51 8.22 8.87 7.58 8 7.58C7.48 7.58 6.96 7.8 6.69 8.16L5.05 7.87L5.47 3.27L10.8 3.27L10.8 4.78L6.99 4.78L6.76 6.96L6.81 6.96C7.12 6.53 7.78 6.21 8.55 6.21C10.12 6.21 11.29 7.41 11.28 9.09Z" fill="#FFFFFF" fill-opacity="1.000000" fill-rule="evenodd"/>
</svg>
