<svg width="24.000000" height="24.000000" viewBox="0 0 24 24" fill="none" xmlns="http://www.w3.org/2000/svg" xmlns:xlink="http://www.w3.org/1999/xlink">
    <defs/>
    <mask id="mask_346_6" fill="white">
        <path id="color" d="M13 3C15.2816 3.46375 17 5.58148 17 8L17 12C18.1046 12 19 12.8954 19 14L19 19L14 19C14 20.1046 13.1046 21 12 21C10.8954 21 10 20.1046 10 19L5 19L5 14C5 12.8954 5.89542 12 7 12L7 8C7 5.58112 8.71786 3.46332 11 3L13 3ZM9.0051 7.82373C9.09634 6.2489 10.4023 5 12 5C13.6569 5 15 6.34314 15 8L15 12C15 13.1046 15.8954 14 17 14L17 17L7 17L7 14C8.10458 14 9 13.1046 9 12L9 8L9.0051 7.82373Z" clip-rule="evenodd" fill="" fill-opacity="1.000000" fill-rule="evenodd"/>
    </mask>
    <path id="color" d="M13 3C15.2816 3.46375 17 5.58148 17 8L17 12C18.1046 12 19 12.8954 19 14L19 19L14 19C14 20.1046 13.1046 21 12 21C10.8954 21 10 20.1046 10 19L5 19L5 14C5 12.8954 5.89542 12 7 12L7 8C7 5.58112 8.71786 3.46332 11 3L13 3ZM9.0051 7.82373C9.09634 6.2489 10.4023 5 12 5C13.6569 5 15 6.34314 15 8L15 12C15 13.1046 15.8954 14 17 14L17 17L7 17L7 14C8.10458 14 9 13.1046 9 12L9 8L9.0051 7.82373Z" clip-rule="evenodd" fill="#7E84A3" fill-opacity="1.000000" fill-rule="evenodd" mask="url(#mask_346_6)"/>
    <path id="color" d="" fill="#979797" fill-opacity="0.000000" fill-rule="nonzero"/>
</svg>
