<svg width="181.000000" height="38.000000" viewBox="0 0 181 38" fill="none" xmlns="http://www.w3.org/2000/svg" xmlns:xlink="http://www.w3.org/1999/xlink">
    <desc>
        Created with Pixso.
    </desc>
    <defs/>
    <path id="Vector" d="M28.47 18.9C28.38 18.97 28.33 18.99 28.32 18.95C27.47 18.94 26.62 18.93 25.77 18.93C24.57 18.93 23.72 18.89 23.22 18.81C21.28 18.52 19.62 17.71 18.26 16.4C15.46 13.7 14.63 10.33 15.75 6.27C15.88 6.03 16 5.78 16.12 5.52C17.44 2.67 19.86 0.82 22.93 0.14C23.3 0.05 23.94 0.01 24.85 0.01C29.16 -0.01 33.43 -0.01 37.65 0C37.82 0 37.86 0.07 37.79 0.22L28.47 18.9Z" fill="#6C72FF" fill-opacity="1.000000" fill-rule="nonzero"/>
    <path id="Vector" d="M15.75 6.27C14.63 10.32 15.46 13.7 18.26 16.4C19.62 17.71 21.28 18.52 23.22 18.81C23.72 18.89 24.57 18.93 25.77 18.93C26.62 18.93 27.47 18.94 28.32 18.95L18.89 38L0.1 37.99C0.08 37.99 0.07 37.98 0.05 37.97C0.03 37.97 0.02 37.95 0.01 37.94C0 37.92 0 37.9 0 37.89C-0.01 37.87 0 37.85 0.01 37.83L15.75 6.27Z" fill="#D0D0FB" fill-opacity="1.000000" fill-rule="nonzero"/>
    <path id="Vector" d="M18.89 38L28.32 18.95C28.33 18.99 28.38 18.97 28.47 18.9C29.66 18.89 30.84 18.89 32.01 18.89C33.22 18.89 34.49 19.19 35.81 19.8C40.14 21.79 42.25 26.73 40.85 31.29C39.86 34.5 37.16 37.05 33.82 37.78C33.16 37.92 32.14 38 30.77 38C26.85 37.99 22.89 37.99 18.89 38Z" fill="#212D9D" fill-opacity="1.000000" fill-rule="nonzero"/>
    <path id="GUSEVFILM" d="M68.22 16.31L64.83 16.31C64.41 14.84 63.25 13.95 61.52 13.95C59.11 13.95 57.47 15.81 57.47 19.09C57.47 22.39 59.05 24.26 61.56 24.26C63.78 24.26 65.11 23.02 65.15 21.06L61.76 21.06L61.76 18.55L68.37 18.55L68.37 20.54C68.37 24.69 65.52 27.21 61.54 27.21C57.1 27.21 54.09 24.11 54.09 19.12C54.09 14 57.3 11 61.47 11C65.04 11 67.79 13.19 68.22 16.31ZM98.46 15.75L95.26 15.75C95.14 14.51 94.16 13.79 92.57 13.79C90.93 13.79 90.03 14.53 90.03 15.55C90.01 16.69 91.16 17.19 92.53 17.51L93.94 17.85C96.69 18.47 98.67 19.86 98.67 22.49C98.67 25.38 96.4 27.22 92.55 27.22C88.72 27.22 86.28 25.45 86.19 22.04L89.42 22.04C89.53 23.62 90.78 24.42 92.51 24.42C94.21 24.42 95.3 23.64 95.31 22.48C95.3 21.42 94.35 20.92 92.62 20.51L90.91 20.08C88.24 19.44 86.6 18.1 86.61 15.77C86.6 12.91 89.13 11 92.59 11C96.1 11 98.41 12.94 98.46 15.75ZM80.62 21.18L80.62 11.21L83.96 11.21L83.96 21.46C83.96 24.91 81.34 27.22 77.42 27.22C73.48 27.22 70.87 24.91 70.87 21.46L70.87 11.21L74.21 11.21L74.21 21.18C74.21 22.98 75.48 24.28 77.42 24.28C79.36 24.28 80.62 22.98 80.62 21.18ZM111.58 27L100.91 27L100.91 11.21L111.54 11.21L111.54 13.96L104.25 13.96L104.25 17.72L111 17.72L111 20.47L104.25 20.47L104.25 24.25L111.58 24.25L111.58 27ZM113.35 11.21L117.05 11.21L120.87 23.2L121.02 23.2L124.84 11.21L128.53 11.21L123.09 27L118.8 27L113.35 11.21ZM133.77 27L130.43 27L130.43 11.21L140.88 11.21L140.88 13.96L133.77 13.96L133.77 17.72L140.19 17.72L140.19 20.47L133.77 20.47L133.77 27ZM143.12 11.21L146.46 11.21L146.46 27L143.12 27L143.12 11.21ZM159.32 27L149.21 27L149.21 11.21L152.55 11.21L152.55 24.25L159.32 24.25L159.32 27ZM161.53 27L161.53 11.21L165.64 11.21L169.99 21.82L170.17 21.82L174.52 11.21L178.63 11.21L178.63 27L175.4 27L175.4 16.72L175.26 16.72L171.18 26.92L168.98 26.92L164.9 16.69L164.76 16.69L164.76 27L161.53 27Z" fill="#000000" fill-opacity="1.000000" fill-rule="evenodd"/>
</svg>
